<svg width="35" height="39" viewBox="0 0 35 39" fill="none" xmlns="http://www.w3.org/2000/svg">
<path d="M14.8005 7.59058C16.1055 5.06833 19.7127 5.06832 21.0177 7.59057L29.1251 23.2608C30.3304 25.5905 28.6395 28.3691 26.0165 28.3691H9.80166C7.17867 28.3691 5.48776 25.5905 6.69307 23.2608L14.8005 7.59058Z" fill="#EA1818" stroke="#EA1818"/>
<path d="M16.912 13.3095C16.912 12.7588 17.3584 12.3124 17.9091 12.3124C18.4599 12.3124 18.9063 12.7588 18.9063 13.3095V20.5595C18.9063 21.1103 18.4599 21.5567 17.9091 21.5567C17.3584 21.5567 16.912 21.1103 16.912 20.5595V13.3095Z" fill="#F7F7F7"/>
<path d="M16.912 23.581C16.912 23.0303 17.3584 22.5839 17.9091 22.5839C18.4599 22.5839 18.9063 23.0303 18.9063 23.581V23.641C18.9063 24.1917 18.4599 24.6382 17.9091 24.6382C17.3584 24.6382 16.912 24.1917 16.912 23.641V23.581Z" fill="#F7F7F7"/>
</svg>
