<svg width="100" height="100" viewBox="0 0 100 100" fill="none" xmlns="http://www.w3.org/2000/svg">
<rect x="0.5" y="0.5" width="99" height="99" rx="49.5" fill="#F7F7F7"/>
<path d="M26 76V73.4286L32.1576 55.4762L26 37.4762V34.9048H62.1697L66.194 24L69.3454 25.1904L65.7576 34.9048H74V37.4762L67.8425 55.4762L74 73.4286V76H26ZM48.5455 65.2381H51.5515V56.9048H59.9879V53.9524H51.5515V45.6667H48.5455V53.9524H40.0606V56.9048H48.5455V65.2381ZM29.3455 73.0476H70.6546L64.5939 55.4762L70.6546 37.8572H29.3455L35.406 55.4762L29.3455 73.0476Z" fill="#56193E"/>
<rect x="0.5" y="0.5" width="99" height="99" rx="49.5" stroke="#56193E"/>
</svg>
