<svg width="100" height="100" viewBox="0 0 100 100" fill="none" xmlns="http://www.w3.org/2000/svg">
<circle cx="50" cy="50" r="49.5" fill="white" stroke="#56193E"/>
<path d="M50.5 49.5C58.0939 49.5 64.25 43.5678 64.25 36.25C64.25 28.9322 58.0939 23 50.5 23C42.9061 23 36.75 28.9322 36.75 36.25C36.75 43.5678 42.9061 49.5 50.5 49.5ZM59.6667 36.25C59.6667 41.1285 55.5626 45.0833 50.5 45.0833C45.4374 45.0833 41.3333 41.1285 41.3333 36.25C41.3333 31.3715 45.4374 27.4167 50.5 27.4167C55.5626 27.4167 59.6667 31.3715 59.6667 36.25Z" fill="#56193E"/>
<path d="M78 71.5833C78 76 73.4167 76 73.4167 76H27.5833C27.5833 76 23 76 23 71.5833C23 67.1667 27.5833 53.9167 50.5 53.9167C73.4167 53.9167 78 67.1667 78 71.5833ZM73.4166 71.568C73.41 70.478 72.7119 67.2128 69.6028 64.2168C66.6133 61.336 60.9917 58.3333 50.5 58.3333C40.0082 58.3333 34.3866 61.336 31.3971 64.2168C28.288 67.2128 27.5899 70.478 27.5833 71.568H73.4166Z" fill="#56193E"/>
</svg>
